<svg version="1.2" xmlns="http://www.w3.org/2000/svg" viewBox="0 0 114 114" width="114" height="114">
	<title>maximize-restore-svg</title>
	<style>
		.s0 { fill: #39ea49;stroke: #25992e;stroke-width: 1.5 } 
		.s1 { fill: #0b7407 } 
	</style>
	<path id="Layer" class="s0" d="m114 57c0 31.5-25.5 57-57 57-31.5 0-57-25.5-57-57 0-31.5 25.5-57 57-57 31.5 0 57 25.5 57 57z"/>
	<path id="Layer" fill-rule="evenodd" class="s1" d="m88.9 38.5v39c0 6.3-5.1 11.4-11.4 11.4h-40.1c-6.3 0-11.4-5.1-11.4-11.4v-39c0-6.3 5.1-11.4 11.4-11.4h40.1c6.3 0 11.4 5.1 11.4 11.4zm-13.9 34.1v-29.2c0-1.6-1.3-2.9-2.9-2.9h-29.2c-1.6 0-2.9 1.3-2.9 2.9v29.2c0 1.6 1.3 2.9 2.9 2.9h29.2c1.6 0 2.9-1.3 2.9-2.9z"/>
</svg>