<svg version="1.2" xmlns="http://www.w3.org/2000/svg" viewBox="0 0 114 114" width="114" height="114">
	<title>maximize-hover-svg</title>
	<style>
		.s0 { fill: #39ea49;stroke: #25992e;stroke-width: 1.5 } 
		.s1 { fill: #0b7407 } 
	</style>
	<path id="Layer" class="s0" d="m114 57c0 31.5-25.5 57-57 57-31.5 0-57-25.5-57-57 0-31.5 25.5-57 57-57 31.5 0 57 25.5 57 57z"/>
	<path id="Layer" class="s1" d="m31.1 45.6l37.5 37.5c1.3 1.2 0.4 3.4-1.4 3.4h-30.9c-4.7 0-8.6-3.9-8.6-8.6v-30.9c0-1.8 2.2-2.7 3.4-1.4zm55.6-8.4v30.8c0 1.8-2.1 2.7-3.4 1.4l-37.4-37.4c-1.3-1.2-0.4-3.4 1.4-3.4h30.8c4.7 0 8.6 3.8 8.6 8.6z"/>
</svg>