<svg version="1.2" xmlns="http://www.w3.org/2000/svg" viewBox="0 0 26 26" width="26" height="26">
	<title>tabclose-svg</title>
	<style>
		.s0 { fill-opacity: .4;fill: context-fill } 
	</style>
	<g id="Layer">
		<path id="Layer" fill-rule="evenodd" class="s0" d="m26 4.9v16.2c0 2.7-2.2 4.9-4.9 4.9h-16.2c-2.7 0-4.9-2.2-4.9-4.9v-16.2c0-2.7 2.2-4.9 4.9-4.9h16.2c2.7 0 4.9 2.2 4.9 4.9zm-7.2 11.6l-3.5-3.5 3.5-3.5c0.2-0.2 0.2-0.6 0-0.9l-1.4-1.4c-0.3-0.2-0.7-0.2-0.9 0l-3.5 3.5-3.5-3.5c-0.2-0.2-0.6-0.2-0.9 0l-1.4 1.4c-0.2 0.3-0.2 0.7 0 0.9l3.5 3.5-3.5 3.5c-0.2 0.2-0.2 0.6 0 0.9l1.4 1.4c0.3 0.2 0.7 0.2 0.9 0l3.5-3.5 3.5 3.5c0.2 0.2 0.6 0.2 0.9 0l1.4-1.4c0.2-0.3 0.2-0.7 0-0.9z"/>
	</g>
</svg>